<?xml version="1.0" standalone="no"?><!DOCTYPE svg PUBLIC "-//W3C//DTD SVG 1.1//EN" "http://www.w3.org/Graphics/SVG/1.1/DTD/svg11.dtd"><svg t="1720085406280" class="icon" viewBox="0 0 1301 1024" version="1.1" xmlns="http://www.w3.org/2000/svg" p-id="6812" xmlns:xlink="http://www.w3.org/1999/xlink" width="254.1015625" height="200"><path d="M1174.03663 440.732601c-1.875458-48.761905-13.128205-97.52381-37.509157-144.410257l-7.501832-13.128205c-52.512821-99.399267-146.285714-161.289377-249.435897-174.417582-18.754579-20.630037-39.384615-37.509158-61.89011-52.512821-58.139194-37.509158-121.904762-56.263736-187.545788-56.263736-110.652015 0-219.428571 54.388278-285.069597 153.787546l-168.791209 256.937729C71.267399 465.113553 0 573.89011 0 699.545788c0 180.043956 144.410256 324.454212 322.578755 324.454212h656.410256c178.168498 0 322.578755-146.285714 322.578755-324.454212 0-105.025641-50.637363-198.798535-127.531136-258.813187z m73.142857 258.813187c0 48.761905-13.128205 95.648352-35.633699 135.032967L361.96337 429.479853h617.025641c50.637363 0 97.52381 15.003663 138.783883 39.384616 9.377289 5.626374 16.879121 11.252747 26.25641 18.754579h1.875458c9.377289 7.501832 16.879121 13.128205 24.380952 20.630036 46.886447 50.637363 76.893773 116.278388 76.893773 191.296704z m-166.915751-390.095239l7.501832 13.128206c13.128205 26.25641 22.505495 54.388278 28.131868 82.520146-41.260073-18.754579-86.271062-30.007326-135.032967-30.007326h-618.901099l341.333333-180.043956c41.260073-20.630037 84.395604-31.882784 129.406594-31.882784h16.879121c26.25641 1.875458 52.512821 7.501832 78.76923 16.879121 63.765568 20.630037 118.153846 67.516484 151.912088 129.406593zM391.970696 183.794872C444.483516 105.025641 532.630037 56.263736 630.153846 56.263736c58.139194 0 114.40293 18.754579 163.164835 52.512821-39.384615 5.626374-78.769231 16.879121-116.278388 35.633699L279.443223 356.336996l112.527473-172.542124z m587.018315 785.81685H324.454212C176.29304 969.611722 56.263736 847.70696 56.263736 699.545788c0-105.025641 60.014652-196.923077 146.285715-240.058609 5.626374-3.750916 13.128205-5.626374 18.754578-9.377289 1.875458 0 3.750916-1.875458 7.501832-3.750916 7.501832-3.750916 16.879121-5.626374 24.380952-7.501831l924.600733 440.732601c-48.761905 56.263736-120.029304 90.021978-198.798535 90.021978z" fill="#FFFFFF" p-id="6813"></path><path d="M1247.179487 699.545788c0 48.761905-13.128205 95.648352-35.633699 135.032967L361.96337 429.479853h617.025641c50.637363 0 97.52381 15.003663 138.783883 39.384616 9.377289 5.626374 16.879121 11.252747 26.25641 18.754579h1.875458c9.377289 7.501832 16.879121 13.128205 24.380952 20.630036 46.886447 50.637363 76.893773 116.278388 76.893773 191.296704z" fill="#005FE8" p-id="6814"></path><path d="M1080.263736 309.450549l7.501832 13.128206c13.128205 26.25641 22.505495 54.388278 28.131868 82.520146-41.260073-18.754579-86.271062-30.007326-135.032967-30.007326h-618.901099l341.333333-180.043956c41.260073-20.630037 84.395604-31.882784 129.406594-31.882784h16.879121c26.25641 1.875458 52.512821 7.501832 78.76923 16.879121 63.765568 20.630037 118.153846 67.516484 151.912088 129.406593z" fill="#4545FF" p-id="6815"></path><path d="M391.970696 183.794872C444.483516 105.025641 532.630037 56.263736 630.153846 56.263736c58.139194 0 114.40293 18.754579 163.164835 52.512821-39.384615 5.626374-78.769231 16.879121-116.278388 35.633699L279.443223 356.336996l112.527473-172.542124z" fill="#3BC2C4" p-id="6816"></path><path d="M978.989011 969.611722H324.454212C176.29304 969.611722 56.263736 847.70696 56.263736 699.545788c0-105.025641 60.014652-196.923077 146.285715-240.058609 5.626374-3.750916 13.128205-5.626374 18.754578-9.377289 1.875458 0 3.750916-1.875458 7.501832-3.750916 7.501832-3.750916 16.879121-5.626374 24.380952-7.501831L1177.787546 881.465201c-48.761905 54.388278-120.029304 88.14652-198.798535 88.146521z" fill="#005FE8" p-id="6817"></path></svg>