<?xml version="1.0" standalone="no"?><!DOCTYPE svg PUBLIC "-//W3C//DTD SVG 1.1//EN" "http://www.w3.org/Graphics/SVG/1.1/DTD/svg11.dtd"><svg t="1714294237521" class="icon" viewBox="0 0 5708 1024" version="1.1" xmlns="http://www.w3.org/2000/svg" p-id="11014" xmlns:xlink="http://www.w3.org/1999/xlink" width="1114.84375" height="200"><path d="M1613.803003 779.904797v107.424386h-122.422556V387.327719h122.422556V779.904797zM2189.920176 887.516661h-101.425119L1835.400952 597.864518v289.652143h-123.172464V387.327719h102.175027l253.094105 298.463566V387.327719h122.422556v500.001464zM2411.518125 600.864152h234.346393v107.424387h-234.346393v179.040644h-123.172464V387.327719h386.57781v108.174295h-263.405346v105.174661zM3515.75833 887.516661h-101.425119l-253.094104-289.652143v289.652143h-123.172465V387.327719h102.175028L3393.335774 685.791285V387.327719h122.422556v500.001464zM3759.478579 779.904797v107.424386H3637.056023V387.327719h122.422556V779.904797zM2917.706335 779.904797v107.424386h-122.422556V387.327719h122.422556V779.904797zM3955.392164 650.170633c0-137.420725 104.61223-238.658367 245.969974-238.658366 68.429147 0 130.109118 22.872208 171.54156 68.429146l-31.496155 31.496156c-38.245331-38.807763-85.11461-55.680703-138.733065-55.680703-113.236177 0-198.350787 83.052362-198.350787 194.413767s85.11461 194.413768 198.350787 194.413768c53.618455 0 100.487733-16.685463 138.733065-56.243134l31.496155 31.496155c-41.619919 45.556939-103.29989 68.991578-172.291468 68.991578-140.795313 0-245.220066-101.237642-245.220066-238.658367zM4435.333577 387.515196h47.619188V884.891981h-47.619188V387.515196zM4546.507506 708.476016c0-104.61223 76.490663-179.040644 179.603076-179.040644s179.040644 74.428415 179.040645 179.040644-75.740754 179.603076-179.040645 179.603076-179.603076-74.990846-179.603076-179.603076z m310.274625 0c0-82.48993-55.680703-137.420725-130.671549-137.420725s-131.421457 54.930795-131.421457 137.420725 56.243134 137.420725 131.421457 137.420725 130.671549-54.930795 130.671549-137.420725zM5286.479678 532.247528V884.891981h-45.556939v-64.30465c-24.746979 42.932259-70.303918 67.679238-126.73453 67.679238-89.801538 0-148.856829-50.243867-148.856829-151.481509V532.435005h47.619188v199.663128c0 74.990846 38.807763 113.236177 105.924569 113.236177 73.678506 0 119.985353-47.619187 119.985354-128.04687v-185.039912h47.619187zM5708.115709 387.515196V884.891981h-45.556939v-69.741487c-28.871476 47.619187-77.803003 73.116075-136.108386 73.116075-100.487733 0-175.666056-73.116075-175.666056-179.603076s74.990846-179.040644 175.666056-179.040644c56.243134 0 104.61223 24.184548 134.046137 69.741486v-211.849139h47.619188z m-46.869279 320.96082c0-82.48993-56.243134-137.420725-130.671549-137.420725s-131.421457 54.930795-131.421457 137.420725 56.243134 137.420725 131.421457 137.420725 130.671549-54.930795 130.671549-137.420725z" fill="#005FE8" p-id="11015"></path><path d="M1173.41926 440.383742c-1.687294-48.74405-13.685829-97.675577-37.870377-143.794947l-6.749176-12.748443c-52.118638-98.800439-146.794581-160.667887-249.719517-174.916148-18.18528-19.685097-38.99524-37.495423-62.429879-53.056024A341.620798 341.620798 0 0 0 629.548151 0c-110.986452 0-219.723178 53.993409-285.152691 153.543757L175.853534 409.637495l-0.374955 0.562432C71.428781 464.193336 0 573.305016 0 699.10216c0 179.415599 144.544855 324.89784 322.648114 324.89784h656.357378c178.290736 0 322.648114-145.482241 322.648115-324.89784 0-105.737093-50.431344-199.47565-128.234347-258.905895z m73.491029 258.905895c0 49.306481-13.310875 95.238374-36.183083 134.983523L361.830831 428.947638h617.174661c50.993775 0 98.425485 14.623215 139.10802 39.745149 8.998902 5.624313 17.622849 11.623581 25.871841 17.997803 0.374954 0.374954 0.749908 0.562431 1.124863 0.937385 8.43647 6.561699 16.310509 13.685829 23.809594 21.372391 48.181618 48.931527 77.99048 116.048334 77.990479 190.289271zM1079.86818 309.89967l6.749176 12.748444c13.873306 26.434273 23.059685 54.180886 27.746613 82.114976-41.244965-19.310143-86.989381-30.183815-135.358477-30.183815H361.455877l342.145734-180.727938a275.347638 275.347638 0 0 1 147.169535-31.683633c26.996705 1.687294 53.056023 7.12413 77.803003 16.123032 64.117173 23.247162 118.485536 69.366532 151.294031 131.796412zM391.264738 184.477481C444.133285 104.237276 533.184914 56.243134 629.548151 56.243134c58.49286 0 115.110948 18.18528 163.480044 52.118638-39.182717 4.874405-78.177957 16.685463-115.298426 36.183083L278.965947 355.269132l112.298791-170.604174zM979.005492 969.256683H322.648114c-147.731966 0-267.904797-121.297693-267.904797-270.154523 0-104.987184 59.8052-195.913585 146.794581-240.720615 6.186745-3.187111 12.560967-5.811791 18.935189-8.43647 2.249725-0.937386 4.499451-2.062248 6.749176-2.999634 8.248993-3.187111 16.497986-5.811791 25.121933-8.248993l924.824607 441.508605c-49.119004 54.55584-119.610399 89.051629-198.163311 89.05163z" fill="#FFFFFF" p-id="11016"></path><path d="M1246.910289 699.10216c0 49.306481-13.310875 95.238374-36.183083 134.983523L361.830831 428.947638h617.174661c50.993775 0 98.425485 14.623215 139.10802 39.745149 8.998902 5.624313 17.622849 11.623581 25.871841 17.997803 0.374954 0.374954 0.749908 0.562431 1.124863 0.937385 8.43647 6.561699 16.310509 13.685829 23.809594 21.372391 48.181618 48.931527 77.99048 116.048334 77.990479 190.289271z" fill="#005FE8" p-id="11017"></path><path d="M1079.86818 309.89967l6.749176 12.748444c13.873306 26.434273 23.059685 54.180886 27.746613 82.114976-41.244965-19.310143-86.989381-30.183815-135.358477-30.183815H361.455877l342.145734-180.727938a275.347638 275.347638 0 0 1 147.169535-31.683633c26.996705 1.687294 53.056023 7.12413 77.803003 16.123032 64.117173 23.247162 118.485536 69.366532 151.294031 131.796412z" fill="#4545FF" p-id="11018"></path><path d="M391.264738 184.477481C444.133285 104.237276 533.184914 56.243134 629.548151 56.243134c58.49286 0 115.110948 18.18528 163.480044 52.118638-39.182717 4.874405-78.177957 16.685463-115.298426 36.183083L278.965947 355.269132l112.298791-170.604174z" fill="#3BC2C4" p-id="11019"></path><path d="M979.005492 969.44416H322.648114c-147.731966 0-267.904797-121.297693-267.904797-270.154523 0-104.987184 59.8052-195.913585 146.794581-240.720615 6.186745-3.187111 12.560967-5.811791 18.935189-8.43647 2.249725-0.937386 4.499451-2.062248 6.749176-2.999634 8.248993-3.187111 16.497986-5.811791 25.121933-8.248993l924.824607 441.508605c-49.119004 54.55584-119.610399 89.051629-198.163311 89.05163z" fill="#005FE8" p-id="11020"></path></svg>