<?xml version="1.0" encoding="utf-8"?>
<!-- Generator: Adobe Illustrator 27.0.0, SVG Export Plug-In . SVG Version: 6.00 Build 0)  -->
<svg version="1.1" id="bg" xmlns="http://www.w3.org/2000/svg" xmlns:xlink="http://www.w3.org/1999/xlink" x="0px" y="0px"
	 viewBox="0 0 1920 1080" style="enable-background:new 0 0 1920 1080;" xml:space="preserve">
<style type="text/css">
	.st0{fill-rule:evenodd;clip-rule:evenodd;fill:#F7F7FF;}
	.st1{fill-rule:evenodd;clip-rule:evenodd;fill:#EDEFFC;}
	.st2{fill:#3BC2C4;}
	.st3{fill:#E6E9FA;}
	.st4{fill:#005FE8;}
	.st5{fill-rule:evenodd;clip-rule:evenodd;fill:#FFFFFF;}
	.st6{fill-rule:evenodd;clip-rule:evenodd;fill:#4545FF;}
	.st7{fill-rule:evenodd;clip-rule:evenodd;fill:#3BC2C4;}
	.st8{fill-rule:evenodd;clip-rule:evenodd;fill:#005FE8;}
	.st9{fill-rule:evenodd;clip-rule:evenodd;fill:#E3EBFF;}
	.st10{fill:none;stroke:#3BC2C4;stroke-width:0.9991;stroke-dasharray:1.9982;}
	.st11{fill:#F7F7FF;stroke:#005FE8;stroke-width:0.9961;}
	.st12{fill-rule:evenodd;clip-rule:evenodd;fill:#FFFFFF;stroke:#005FE8;stroke-width:0.9991;}
	.st13{fill-rule:evenodd;clip-rule:evenodd;fill:#005FE8;stroke:#005FE8;stroke-width:0.9991;}
	.st14{fill-rule:evenodd;clip-rule:evenodd;fill:#E6E9FA;}
	.st15{fill-rule:evenodd;clip-rule:evenodd;fill:#333A5B;}
	.st16{fill:none;stroke:#005FE8;stroke-width:0.9991;}
	.st17{fill:#00FBFF;}
	.st18{fill:none;stroke:#E6E9FA;stroke-width:10.8323;stroke-linecap:round;}
	.st19{fill-rule:evenodd;clip-rule:evenodd;fill:#FFFFFF;stroke:#0864E8;stroke-width:0.9991;}
	.st20{fill:none;stroke:#E8E8E8;stroke-width:0.5475;}
	.st21{fill:none;stroke:#0864E8;stroke-width:0.9991;}
	.st22{fill:none;stroke:#005FE8;stroke-width:0.9991;stroke-linecap:round;stroke-linejoin:round;}
	.st23{fill:none;stroke:#00FBFF;stroke-width:0.9991;}
	.st24{fill:#FFFFFF;}
</style>
<path id="path-1_00000163069074072478242960000004830867685950378384_" class="st0" d="M0,0h1920v1080H0V0z"/>
<path id="lin123" class="st1" d="M0,0v349.4c46.1,37.5,104.8,59.9,168.8,59.9c148,0,268-120,268-268V0H0z"/>
<path id="lin124" class="st2" d="M802.6,337.8l-9,4.5l9,4.5v-4h0.4v-1h-0.4V337.8z M807,341.8h-2v1h2V341.8z M811,341.8h-2v1h2
	V341.8z M815,341.8h-2v1h2V341.8z M819,341.8h-2v1h2V341.8z M823,341.7h-2v1h2V341.7z M827,341.7h-2v1h2V341.7z M831,341.7h-2v1h2
	V341.7z M835,341.7h-2v1h2V341.7z M839,341.7h-2v1h2V341.7z M843,341.6h-2v1h2V341.6z M847,341.6h-2v1h2V341.6z M851,341.6h-2v1h2
	V341.6z M855,341.6h-2v1h2V341.6z M859,341.6h-2v1h2V341.6z M863,341.5h-2v1h2V341.5z M867,341.5h-2v1h2V341.5z M871,341.5h-2v1h2
	V341.5z M875,341.5h-2v1h2V341.5z M879,341.5h-2v1h2V341.5z M883,341.4h-2v1h2V341.4z M887,341.4h-2v1h2V341.4z M891,341.4h-2v1h2
	V341.4z M895,341.4h-2v1h2V341.4z"/>
<path id="lin125" class="st3" d="M801.6,425.2l9-4.6l0.1,9L801.6,425.2z M814,424.6h-2v1h2V424.6z M818,424.6h-2v1h2V424.6z
	 M822,424.5h-2v1h2V424.5z M826,424.5h-2v1h2V424.5z M830,424.5h-2v1h2V424.5z M834,424.4h-2v1h2V424.4z M838,424.4h-2v1h2V424.4z
	 M842,424.4h-2v1h2V424.4z M846,424.3h-2v1h2V424.3z M850,424.3h-2v1h2V424.3z M854,424.3h-2v1h2V424.3z M858,424.2h-2v1h2V424.2z
	 M862,424.2h-2v1h2V424.2z"/>
<path id="lin126" class="st4" d="M556.4,582l-9-4.6l-0.1,9L556.4,582z M544,581.4h2v1h-2V581.4z M540,581.3h2v1h-2V581.3z
	 M536,581.3h2v1h-2V581.3z M532,581.3h2v1h-2V581.3z M528,581.2h2v1h-2V581.2z M524,581.2h2v1h-2V581.2z M520,581.2h2v1h-2V581.2z
	 M516,581.1h2v1h-2V581.1z M512,581.1h2v1h-2V581.1L512,581.1z M508,581.1h2v1h-2V581.1z M504,581h2v1h-2V581z M500,581h2v1h-2V581z
	 M496,581h2v1h-2V581z"/>
<path id="lin127" class="st3" d="M729.7,314.4l9-4.6l0.1,9L729.7,314.4z M742.2,313.8h-2v1h2V313.8z M746.2,313.8h-2v1h2V313.8z
	 M750.2,313.7h-2v1h2V313.7z M754.2,313.7h-2v1h2V313.7z M758.2,313.7h-2v1h2V313.7z M762.2,313.6h-2v1h2V313.6z M766.2,313.6h-2v1
	h2V313.6z M770.2,313.6h-2v1h2V313.6z M774.2,313.5h-2v1h2V313.5z M778.2,313.5h-2v1h2V313.5z M782.2,313.5h-2v1h2V313.5z
	 M786.2,313.4h-2v1h2V313.4z M790.2,313.4h-2v1h2V313.4z"/>
<circle id="r4" class="st5" cx="396.7" cy="321.9" r="23.5"/>
<path id="fang1111" class="st6" d="M396.9,305.7l6.5,3.8v7.5l-6.5,3.8l-6.5-3.8v-7.5L396.9,305.7z"/>
<path id="fang11" class="st7" d="M389.9,318.6l6.6,3.8v7.5l-6.6,3.8l-6.5-3.8v-7.5L389.9,318.6z"/>
<path id="fang1" class="st8" d="M405,318.6l6.5,3.8v7.5l-6.5,3.8l-6.5-3.8v-7.5L405,318.6z"/>
<circle id="r2" class="st5" cx="396.7" cy="437.7" r="23.5"/>
<circle id="r1" class="st5" cx="396.7" cy="377.8" r="23.5"/>
<path id="ang3" class="st9" d="M396.9,362.7l6.5,3.8v7.5l-6.5,3.8l-6.5-3.8v-7.5L396.9,362.7z"/>
<path id="ang2" class="st9" d="M389.9,375.5l6.6,3.8v7.5l-6.6,3.8l-6.5-3.8v-7.5L389.9,375.5z"/>
<path id="ang" class="st9" d="M405,375.5l6.5,3.8v7.5l-6.5,3.8l-6.5-3.8v-7.5L405,375.5z"/>
<path id="line11" class="st10" d="M424.4,320.7c15.7,0,28.5,12.8,28.5,28.5s-12.8,28.5-28.5,28.5"/>
<path id="line12" class="st10" d="M368.9,381.6c-15.7,0-28.5,12.8-28.5,28.5s12.8,28.5,28.5,28.5"/>
<path id="logo" class="st11" d="M706.4,401.8c-0.4-12.2-3.4-24.5-9.5-36.1l-1.7-3.2c-13.1-24.8-37-40.3-62.8-43.9
	c-4.6-4.9-9.8-9.4-15.7-13.3l0,0c-14.5-9.4-30.9-14-47.1-14c-28,0-55.3,13.5-71.7,38.5l-42.4,64.1l0,0l-0.1,0.1
	c-26.2,13.5-44.2,40.9-44.2,72.3c0,45,36.4,81.4,81.2,81.4h165.2c44.9,0,81.2-36.5,81.2-81.4C738.7,440.1,726,416.6,706.4,401.8
	L706.4,401.8L706.4,401.8z M725.5,466.9c0,12.3-3.4,23.8-9.1,33.8L502.7,399.3h155.4c12.8,0,24.8,3.7,35,9.9
	c2.3,1.4,4.4,2.9,6.5,4.5c0.1,0.1,0.2,0.1,0.3,0.2c2.1,1.6,4.1,3.4,6,5.3C718,431.6,725.5,448.4,725.5,466.9L725.5,466.9
	L725.5,466.9z M683.7,369.2l1.7,3.2c3.5,6.6,5.8,13.5,7,20.5c-10.4-4.8-21.9-7.5-34.1-7.5H502.7l86.2-45c10.2-5.3,21.2-8,32.7-8
	c1.5,0,2.9,0,4.4,0.1c6.8,0.4,13.4,1.8,19.6,4l0,0C661.8,342.2,675.5,353.7,683.7,369.2L683.7,369.2L683.7,369.2z M509.9,337.9
	c13.3-20.1,35.7-32.1,59.8-32.1l0,0c14.7,0,28.9,4.6,41.1,13.1c-9.8,1.2-19.6,4.2-29,9.1l-100.1,52.7L509.9,337.9L509.9,337.9
	L509.9,337.9z M658,533.7H530.3l0,0h-37.4c-37.2,0-67.3-30.2-67.3-67.2c0-26.2,15.1-48.8,37-59.9c1.6-0.8,3.2-1.4,4.8-2.1
	c0.6-0.2,1.1-0.5,1.7-0.7c2.1-0.8,4.2-1.4,6.3-2.1l232.5,109.8C695.4,525.1,677.8,533.7,658,533.7z"/>
<path id="Fill-11" class="st6" d="M561,644.3c0,6.1-4.9,11-11,11s-11-4.9-11-11s4.9-11,11-11S561,638.3,561,644.3"/>
<path id="Fill-11备份" class="st8" d="M923.3,413.8c0,7.7-6.3,14-14,14s-14-6.3-14-14s6.3-14,14-14S923.3,406.1,923.3,413.8"/>
<path id="Fill-15" class="st6" d="M764.9,407.8h39c1.7,0,3-1.3,3-3v-39c0-1.7-1.3-3-3-3h-39c-1.7,0-3,1.3-3,3v39
	C761.9,406.5,763.3,407.8,764.9,407.8z"/>
<path id="Fill-21" class="st12" d="M617,641.6h259.3c1.5,0,2.7-1.2,2.7-2.7V482.5c0-1.5-1.2-2.7-2.7-2.7H617c-1.5,0-2.7,1.2-2.7,2.7
	V639C614.3,640.3,615.5,641.6,617,641.6z"/>
<path id="Fill-22" class="st0" d="M646.7,555.9h203.8v-40H646.7V555.9z"/>
<path id="Fill-23" class="st13" d="M617.3,485.5H876c1.7,0,3-1.3,3-3v-17c0-1.7-1.3-3-3-3H617.3c-1.7,0-3,1.3-3,3v17
	C614.3,484.3,615.7,485.5,617.3,485.5z"/>
<path id="Fill-24" class="st5" d="M629.6,474.1c0,1.1-0.9,1.9-1.9,1.9s-1.9-0.9-1.9-1.9s0.9-1.9,1.9-1.9S629.6,473.1,629.6,474.1"/>
<path id="Fill-25" class="st5" d="M637.2,474.1c0,1.1-0.9,1.9-1.9,1.9s-1.9-0.9-1.9-1.9s0.9-1.9,1.9-1.9S637.2,473.1,637.2,474.1"/>
<path id="Fill-26" class="st5" d="M643.9,474.1c0,1.1-0.9,1.9-1.9,1.9c-1.1,0-1.9-0.9-1.9-1.9s0.9-1.9,1.9-1.9
	S643.9,473.1,643.9,474.1"/>
<path id="Fill-27" class="st0" d="M677.4,497.8h-27c-2,0-3.7,1.7-3.7,3.8s1.6,3.8,3.7,3.8h27c2,0,3.7-1.7,3.7-3.8
	C681,499.5,679.4,497.8,677.4,497.8"/>
<path id="Fill-28" class="st0" d="M698.2,497.8h-9.8c-2,0-3.7,1.7-3.7,3.8s1.6,3.8,3.7,3.8h9.8c2,0,3.7-1.7,3.7-3.8
	S700.3,497.8,698.2,497.8"/>
<path id="Fill-29" class="st0" d="M753.5,497.8h-44.1c-2,0-3.7,1.7-3.7,3.8s1.6,3.8,3.7,3.8h44.1c2,0,3.7-1.7,3.7-3.8
	S755.5,497.8,753.5,497.8"/>
<path id="Fill-30" class="st0" d="M792.6,497.8h-27c-2,0-3.7,1.7-3.7,3.8s1.6,3.8,3.7,3.8h27c2,0,3.7-1.7,3.7-3.8
	C796.1,499.5,794.5,497.8,792.6,497.8"/>
<path id="Fill-31" class="st0" d="M754.4,563.5h-9.8c-2,0-3.7,1.7-3.7,3.8s1.6,3.8,3.7,3.8h9.8c2,0,3.7-1.7,3.7-3.8
	S756.5,563.5,754.4,563.5"/>
<path id="Fill-32" class="st0" d="M809.6,563.5h-44.1c-2,0-3.7,1.7-3.7,3.8s1.6,3.8,3.7,3.8h44.1c2,0,3.7-1.7,3.7-3.8
	S811.7,563.5,809.6,563.5"/>
<path id="Fill-33" class="st8" d="M820.8,563.5c-2,0-3.7,1.7-3.7,3.8s1.6,3.8,3.7,3.8h27c2,0,3.7-1.7,3.7-3.8s-1.6-3.8-3.7-3.8
	H820.8z"/>
<path id="Fill-34" class="st0" d="M809.6,588.3h-44.1c-2,0-3.7,1.7-3.7,3.8s1.6,3.8,3.7,3.8h44.1c2,0,3.7-1.7,3.7-3.8
	S811.7,588.3,809.6,588.3"/>
<path id="Fill-35" class="st0" d="M847.7,588.3h-27c-2,0-3.7,1.7-3.7,3.8s1.6,3.8,3.7,3.8h27c2,0,3.7-1.7,3.7-3.8
	S849.8,588.3,847.7,588.3"/>
<path id="Fill-36" class="st8" d="M846.8,497.8h-43.2c-2,0-3.6,1.7-3.6,3.8s1.6,3.8,3.6,3.8h43.2c2,0,3.6-1.7,3.6-3.8
	C850.5,499.5,848.8,497.8,846.8,497.8"/>
<path id="Fill-37" class="st0" d="M753.5,574.9h-44.1c-2,0-3.7,1.7-3.7,3.8s1.6,3.8,3.7,3.8h44.1c2,0,3.7-1.7,3.7-3.8
	C757.2,576.7,755.5,574.9,753.5,574.9"/>
<path id="Fill-38" class="st0" d="M792.6,574.9h-27c-2,0-3.7,1.7-3.7,3.8s1.6,3.8,3.7,3.8h27c2,0,3.7-1.7,3.7-3.8
	C796.1,576.7,794.5,574.9,792.6,574.9"/>
<path id="Fill-39" class="st0" d="M846.8,574.9h-43.2c-2,0-3.6,1.7-3.6,3.8s1.6,3.8,3.6,3.8h43.2c2,0,3.6-1.7,3.6-3.8
	C850.5,576.7,848.8,574.9,846.8,574.9"/>
<path id="Fill-40" class="st14" d="M451.1,656.2h-27c-2,0-3.7,1.7-3.7,3.8s1.6,3.8,3.7,3.8h27c2,0,3.7-1.7,3.7-3.8
	S453.1,656.2,451.1,656.2"/>
<path id="Fill-41" class="st14" d="M472.9,656.2h-9.8c-2,0-3.7,1.7-3.7,3.8s1.6,3.8,3.7,3.8h9.8c2,0,3.7-1.7,3.7-3.8
	S474.9,656.2,472.9,656.2"/>
<path id="Fill-42" class="st14" d="M380.7,669.5h-44.1c-2,0-3.7,1.7-3.7,3.8s1.6,3.8,3.7,3.8h44.1c2,0,3.7-1.7,3.7-3.8
	C384.3,671.2,382.7,669.5,380.7,669.5"/>
<path id="Fill-43" class="st7" d="M418.8,669.5h-27c-2,0-3.7,1.7-3.7,3.8s1.6,3.8,3.7,3.8h27c2,0,3.7-1.7,3.7-3.8
	S420.8,669.5,418.8,669.5"/>
<path id="Fill-44" class="st14" d="M473.1,669.5h-43.2c-2,0-3.6,1.7-3.6,3.8s1.6,3.8,3.6,3.8h43.2c2,0,3.6-1.7,3.6-3.8
	S475.1,669.5,473.1,669.5"/>
<path id="Fill-58" class="st15" d="M819,683.3h103.5c1.7,0,3-1.3,3-3v-58.8H816v58.8C816,682,817.3,683.3,819,683.3z"/>
<path id="Fill-58备份" class="st5" d="M922.6,605.5H819.2c-1.7,0-3,1.3-3,3v13h109.5v-13C925.6,606.9,924.3,605.5,922.6,605.5z"/>
<path id="Fill-59" class="st16" d="M819.2,683.3h103.5c1.7,0,3-1.3,3-3v-70.9c0-1.7-1.3-3-3-3H819.2c-1.7,0-3,1.3-3,3v70.9
	C816.2,682,817.5,683.3,819.2,683.3z"/>
<g id="gop1">
	<g id="路径_00000003808532762515948530000004328548998345202603_">
		<path class="st5" d="M872.1,643.4c0.3-0.8,1.1-1.2,1.9-0.9c0.8,0.3,1.2,1.2,0.9,2l-6,16.9c-0.3,0.8-1.1,1.2-1.9,0.9
			c-0.8-0.3-1.2-1.2-0.9-2L872.1,643.4z M878.4,647c-0.4-0.4-0.5-1-0.3-1.5s0.6-0.9,1.1-1.1c0.5-0.1,1.1,0.1,1.4,0.5l6,6.9
			c0.5,0.6,0.5,1.5,0,2.1l-6,6.9c-0.4,0.4-0.9,0.6-1.4,0.5s-1-0.5-1.1-1.1c-0.2-0.5,0-1.1,0.3-1.5l5.1-5.9
			C883.5,652.8,878.4,647,878.4,647z M862.6,647c0.4-0.4,0.5-1,0.3-1.5s-0.6-0.9-1.1-1.1c-0.5-0.1-1.1,0.1-1.4,0.5l-6,6.9
			c-0.5,0.6-0.5,1.5,0,2.1l6,6.9c0.4,0.4,0.9,0.6,1.4,0.5s1-0.5,1.1-1.1c0.2-0.5,0-1.1-0.3-1.6l-5.1-5.9
			C857.5,652.7,862.6,647,862.6,647z"/>
	</g>
</g>
<path id="Fill-61" class="st8" d="M824.7,613.9c0,1.1-0.9,1.9-1.9,1.9c-1.1,0-1.9-0.9-1.9-1.9s0.9-1.9,1.9-1.9
	C823.9,612,824.7,612.9,824.7,613.9"/>
<path id="Fill-62" class="st8" d="M832.4,613.9c0,1.1-0.9,1.9-1.9,1.9s-1.9-0.9-1.9-1.9s0.9-1.9,1.9-1.9S832.4,612.9,832.4,613.9"/>
<path id="Fill-63" class="st8" d="M840,613.9c0,1.1-0.9,1.9-1.9,1.9s-1.9-0.9-1.9-1.9s0.9-1.9,1.9-1.9S840,612.9,840,613.9"/>
<path id="Fill-64" class="st14" d="M816.3,696.2c-7.6,28.2-36.4,45-64.2,37.5c-18.9-5.1-32.6-20-37.1-37.8
	c-2.2-8.5-2.2-17.7,0.2-26.8c2.3-8.6,6.5-16.1,12.1-22.2c12.8-14,32.7-20.6,52.2-15.3C807.3,639,823.9,668,816.3,696.2"/>
<path id="Fill-65" class="st14" d="M771.9,656.2l3.7,0.9l9.3-34.9l-3.6-1L771.9,656.2z"/>
<path id="Fill-66" class="st8" d="M790.6,619.3c-1,3.8-4.9,6.1-8.8,5.1c-3.8-1-6.1-4.9-5.1-8.8c1-3.8,4.9-6.1,8.8-5.1
	S791.7,615.4,790.6,619.3"/>
<path id="Fill-67" class="st6" d="M632.2,596.8h48.9c1.5,0,2.7-1.2,2.7-2.7v-48.9c0-1.5-1.2-2.7-2.7-2.7h-48.9
	c-1.5,0-2.7,1.2-2.7,2.7v48.9C629.5,595.7,630.7,596.8,632.2,596.8z"/>
<g id="yuan">
	<path class="st17" d="M649,553.8c0,0,1.7,3.2,1.9,3.1c-6.5,3.2-9.9,11.4-6.8,18.2c4.9,11.3,20.8,12.1,27,1.5
		c6.5-10.6-2.5-25.2-14.9-24.5c2-0.1,4,0.1,5.9,0.6c15.7,5,16.7,26.8,0.9,32.6c-8.1,3-17.9-1.1-21.5-9
		C637.4,568.2,641.2,558.1,649,553.8L649,553.8z"/>
</g>
<path id="Fill-70" class="st7" d="M742.9,657.4L732.8,695c-0.8,3.1-4,4.9-7.1,4.1l-10.7-2.9c-2.2-8.5-2.4-17.7,0.1-26.8
	c2.3-8.6,6.6-16.1,12.2-22.1l11.5,3.1C741.9,651.1,743.8,654.3,742.9,657.4"/>
<path id="Fill-71" class="st8" d="M729.5,684c0,6.6,4.5,11.9,10,11.9s10-5.3,10-11.9c0-6.6-4.5-11.9-10-11.9S729.5,677.4,729.5,684"
	/>
<path id="Stroke-72" class="st18" d="M674.8,607.2c0,0-9.4,81.4,60.5,76.9"/>
<path id="Fill-69" class="st14" d="M675.3,612c-10,0-18.1-8.3-18.1-18.5c0-7.4,4.3-13.8,10.4-16.8v17.1c0,1.7,1.3,3,3,3h10.1
	c1.7,0,3-1.3,3-3v-16.7c5.8,3.1,9.7,9.3,9.7,16.4C693.3,603.7,685.2,612,675.3,612L675.3,612z"/>
<g id="map">
	<g transform="translate(335 539)">
		<path id="矩形备份-28" class="st19" d="M5,1h133.9c1.7,0,3,1.3,3,3v94.9c0,1.7-1.3,3-3,3H5c-1.7,0-3-1.3-3-3V4
			C2,2.3,3.3,1,5,1z"/>
		<path id="矩形备份-29" class="st9" d="M9.5,24.5h3c0.6,0,1,0.4,1,1s-0.4,1-1,1h-3c-0.6,0-1-0.4-1-1S8.9,24.5,9.5,24.5z"/>
		<path id="矩形备份-40" class="st9" d="M10,4.5h39c1.9,0,3.5,1.6,3.5,3.5v1c0,1.9-1.6,3.5-3.5,3.5H10c-1.9,0-3.5-1.6-3.5-3.5V8
			C6.5,6.1,8.1,4.5,10,4.5z"/>
		<path id="矩形备份-32" class="st9" d="M9.5,51.5h3c0.6,0,1,0.4,1,1s-0.4,1-1,1h-3c-0.6,0-1-0.4-1-1S8.9,51.5,9.5,51.5z"/>
		<path id="矩形备份-30" class="st9" d="M9.5,33.5h3c0.6,0,1,0.4,1,1s-0.4,1-1,1h-3c-0.6,0-1-0.4-1-1S8.9,33.5,9.5,33.5z"/>
		<path id="矩形备份-33" class="st9" d="M9.5,59.4h3c0.6,0,1,0.4,1,1s-0.4,1-1,1h-3c-0.6,0-1-0.4-1-1
			C8.5,59.8,8.9,59.4,9.5,59.4z"/>
		<path id="矩形备份-31" class="st9" d="M9.5,41.5h3c0.6,0,1,0.4,1,1s-0.4,1-1,1h-3c-0.6,0-1-0.4-1-1S8.9,41.5,9.5,41.5z"/>
		<path id="矩形备份-34" class="st9" d="M9.5,68.4h3c0.6,0,1,0.4,1,1s-0.4,1-1,1h-3c-0.6,0-1-0.4-1-1S8.9,68.4,9.5,68.4z"/>
		<path id="矩形备份-35" class="st9" d="M9.5,76.4h3c0.6,0,1,0.4,1,1s-0.4,1-1,1h-3c-0.6,0-1-0.4-1-1S8.9,76.4,9.5,76.4z"/>
		<path id="矩形备份-36" class="st9" d="M21.4,92.4h5c0.6,0,1,0.4,1,1s-0.4,1-1,1h-5c-0.6,0-1-0.4-1-1S20.8,92.4,21.4,92.4z"/>
		<path id="矩形备份-37" class="st9" d="M54.4,92.4h5c0.6,0,1,0.4,1,1s-0.4,1-1,1h-5c-0.6,0-1-0.4-1-1S53.8,92.4,54.4,92.4z"/>
		<path id="矩形备份-38" class="st9" d="M87.4,92.4h5c0.6,0,1,0.4,1,1s-0.4,1-1,1h-5c-0.6,0-1-0.4-1-1S86.8,92.4,87.4,92.4z"/>
		<path id="矩形备份-39" class="st9" d="M120.4,92.4h5c0.6,0,1,0.4,1,1s-0.4,1-1,1h-5c-0.6,0-1-0.4-1-1S119.8,92.4,120.4,92.4z"
			/>
		<path id="路径-4" class="st20" d="M17.9,23.5v63.9"/>
		<path id="路径-5" class="st20" d="M13.7,86.8L134,86.6"/>
		<path id="路径-6" class="st20" d="M14.4,25h3"/>
		<path id="路径-6备份-2" class="st20" d="M14.4,42h3"/>
		<path id="路径-6备份-4" class="st20" d="M14.4,59.9h3"/>
		<path id="路径-6备份-6" class="st20" d="M14.4,76.9h3"/>
		<path id="路径-6备份-7" class="st20" d="M23.4,86.9v4"/>
		<path id="路径-6备份-8" class="st20" d="M40.4,86.9v4"/>
		<path id="路径-6备份-9" class="st20" d="M56.4,86.9v4"/>
		<path id="路径-6备份-10" class="st20" d="M73.4,86.9v4"/>
		<path id="路径-6备份-11" class="st20" d="M89.4,86.9v4"/>
		<path id="路径-6备份-12" class="st20" d="M106.4,86.9v4"/>
		<path id="路径-6备份-13" class="st20" d="M121.4,86.9v4"/>
		<path id="路径-6备份" class="st20" d="M14.4,34h3"/>
		<path id="路径-6备份-3" class="st20" d="M14.4,52h3"/>
		<path id="路径-6备份-5" class="st20" d="M14.4,68.9h3"/>
		<path id="路径-7" class="st21" d="M1.5,17h140.9"/>
		<path id="路径-9" class="st22" d="M24.4,75.5l3.7-3.1c1.5,6,2.3,9,2.3,9l1.6-16l1.7,13.9c0,0,0.5-4.3,1.6-13l1.5,2.8l2.1,11.1
			c1.7-33.3,2.6-50,2.6-50l1.7-0.8c0,0,0.9,2.7,2.8,8.1l5.6-1.6h4.2c0,0,1.7,0.5,5,1.6l3.8-1.6c0.6,1,0.9,1.6,0.9,1.6
			s1.5-0.5,4.4-1.6c0.9,1,1.3,1.6,1.3,1.6l3.6-3.9c2.1,1.5,3.2,2.3,3.2,2.3h5c1.8-0.9,2.7-1.3,2.7-1.3l4.2,2.9c0,0,1.5-0.9,4.4-2.8
			c1.7,1.9,2.5,2.8,2.5,2.8l4-1.6c0,0,3.2-3.3,3.2-2.3s3,3.9,3,3.9s1.6-0.5,4.7-1.6l2.5-2.3l4.3,3.9c1.1-2.6,1.6-3.9,1.6-3.9
			l2.1,3.9h4"/>
	</g>
</g>
<path id="sacn" class="st23" d="M648.8,553.9l8.7,15.1"/>
<path id="_x2B_" class="st24" d="M794,390.6h-3.1v-3.1c0-0.5-0.4-1-1-1s-1,0.4-1,1v3.1h-3c-0.5,0-1,0.4-1,1s0.4,1,1,1h3.2v3
	c0,0.5,0.4,1,1,1s1-0.4,1-1v-3.1h3c0.5,0,1-0.4,1-1S794.6,390.6,794,390.6z"/>
<path id="man" class="st24" d="M782.8,372.7c-3.6,0.1-6.6,3.1-6.7,6.8c-0.1,2.4,1.1,4.6,3,5.9c-4.4,1.5-7.6,5.5-8,10.3
	c0,0.6,0.4,1,1,1c0.5,0,0.9-0.4,1-0.9c0.5-5.1,4.7-9.1,10-9.2c3.9,0,7.1-3.1,7.1-7C790,375.6,786.8,372.6,782.8,372.7z M783.1,384.6
	c-2.8,0-5-2.3-5-5s2.3-5,5-5s5,2.3,5,5C788.1,382.3,785.9,384.6,783.1,384.6z"/>
<path id="rongxian" class="st14" d="M1432,1080h488V595.7C1855.6,831.8,1668.8,1017.3,1432,1080z"/>
</svg>
